<svg width="35px" height="40px" viewBox="0 0 50 50" version="1.1" xmlns:xlink="http://www.w3.org/1999/xlink" xmlns="http://www.w3.org/2000/svg">
	<defs>
		<path d="M50 0L50 0L50 50L0 50L0 0L50 0Z" id="path_1" />
		<clipPath id="clip_1">
			<use xlink:href="#path_1" clip-rule="evenodd" fill-rule="evenodd" />
		</clipPath>
	</defs>
	<g id="Instagram">
		<path d="M50 0L50 0L50 50L0 50L0 0L50 0Z" id="Instagram" fill="none" stroke="none" />
		<path d="M16 3C8.83249 3 3 8.83249 3 16L3 34C3 41.1675 8.83249 47 16 47L34 47C41.1675 47 47 41.1675 47 34L47 16C47 8.83249 41.1675 3 34 3L16 3L16 3ZM16 5L34 5C40.0865 5 45 9.91352 45 16L45 34C45 40.0865 40.0865 45 34 45L16 45C9.91352 45 5 40.0865 5 34L5 16C5 9.91352 9.91352 5 16 5L16 5ZM37 11C35.8954 11 35 11.8954 35 13C35 14.1046 35.8954 15 37 15C38.1046 15 39 14.1046 39 13C39 11.8954 38.1046 11 37 11L37 11ZM25 14C18.9367 14 14 18.9367 14 25C14 31.0633 18.9367 36 25 36C31.0633 36 36 31.0633 36 25C36 18.9367 31.0633 14 25 14L25 14ZM25 16C29.9824 16 34 20.0176 34 25C34 29.9824 29.9824 34 25 34C20.0176 34 16 29.9824 16 25C16 20.0176 20.0176 16 25 16L25 16Z" id="Shape" fill="#FFFFFF" fill-rule="evenodd" stroke="none" clip-path="url(#clip_1)" />
	</g>
</svg>
